<?xml version="1.0" encoding="UTF-8"?>
<svg id="Capa_1" data-name="Capa 1" xmlns="http://www.w3.org/2000/svg" viewBox="0 0 64 64">
  <defs>
    <style>
      .cls-1 {
        fill: none;
        stroke: #ff7249;
        stroke-linecap: round;
        stroke-linejoin: round;
        stroke-width: 3px;
      }
    </style>
  </defs>
  <path class="cls-1" d="M36.78,50.88v-10.25c-.98.2-2,.31-3.04.31s-2.06-.11-3.04-.31v10.25c-2.07.02-3.95.87-5.32,2.23-1.38,1.38-2.24,3.3-2.24,5.42h21.2c0-4.2-3.38-7.6-7.55-7.65Z"/>
  <g>
    <path class="cls-1" d="M20.97,28.25h-.69c-3.57,0-6.46-2.89-6.46-6.46v-6.9h7v11.27c0,.7.04,1.41.15,2.09Z"/>
    <path class="cls-1" d="M46.49,5.71v20.46c0,.7-.04,1.41-.13,2.09-.75,6.17-4.8,11.12-10,12.38-.85.2-1.72.31-2.63.31s-1.78-.11-2.63-.31c-5.21-1.26-9.26-6.21-10.01-12.38-.09-.68-.13-1.38-.13-2.09V5.71h25.53Z"/>
    <path class="cls-1" d="M53.65,14.9v6.9c0,3.57-2.9,6.46-6.46,6.46h-.7c.1-.68.14-1.38.14-2.09v-11.27h7.01Z"/>
  </g>
</svg>