<?xml version="1.0" encoding="UTF-8"?>
<svg id="Capa_1" data-name="Capa 1" xmlns="http://www.w3.org/2000/svg" viewBox="0 0 64 64">
  <defs>
    <style>
      .cls-1 {
        stroke-width: 3px;
      }

      .cls-1, .cls-2 {
        fill: none;
        stroke: #ff7249;
        stroke-linecap: round;
        stroke-linejoin: round;
      }

      .cls-2 {
        stroke-width: 2px;
      }
    </style>
  </defs>
  <path class="cls-2" d="M10.9,32.53h3.79c.84,0,1.52-.68,1.52-1.52v-5.2c0-.95-.86-1.66-1.79-1.49l-2.55.46c-.52.09-.96.45-1.15.95-.4,1.05-1.05,3-1.33,5.1-.12.9.6,1.7,1.51,1.7Z"/>
  <rect class="cls-1" x="23.59" y="19.95" width="16.92" height="12.88"/>
  <circle class="cls-2" cx="32.01" cy="38.39" r="2.24"/>
  <circle class="cls-2" cx="39.7" cy="38.39" r="2.24"/>
  <circle class="cls-2" cx="24.37" cy="38.39" r="2.24"/>
  <line class="cls-1" x1="11.82" y1="20.67" x2="18.12" y2="19.95"/>
  <line class="cls-2" x1="20" y1="22.39" x2="20" y2="23.98"/>
  <line class="cls-2" x1="20" y1="26.81" x2="20" y2="28.4"/>
  <line class="cls-2" x1="20" y1="31.23" x2="20" y2="32.82"/>
  <g>
    <path class="cls-1" d="M32,15.01s14.13.29,21.22,2.17c1.36.36,2.58,1.14,3.48,2.23,1.91,2.3,4.96,7.08,4.96,14.15,0,6.66-2.93,12.37-4.98,15.57-1,1.56-3.08,2-4.62.98h0c-1.45-.96-1.93-2.89-1.06-4.4,1.23-2.13,2.69-5.2,2.69-7.77,0-.46-.39-.83-.85-.83h-2.7c-1.4,0-2.64.91-3.07,2.24l-.51,1.61c-.51,1.61-2.01,2.7-3.69,2.7h-21.73c-1.69,0-3.18-1.09-3.69-2.7l-.51-1.61c-.43-1.34-1.67-2.24-3.07-2.24h-2.7c-.46,0-.85.37-.85.83,0,2.56,1.47,5.63,2.69,7.77.87,1.51.4,3.44-1.06,4.4h0c-1.54,1.02-3.62.58-4.62-.98-2.06-3.19-4.98-8.91-4.98-15.57,0-7.06,3.05-11.84,4.96-14.15.9-1.09,2.11-1.87,3.48-2.23,7.08-1.88,21.22-2.17,21.22-2.17Z"/>
    <path class="cls-2" d="M53.1,32.53h-3.79c-.84,0-1.52-.68-1.52-1.52v-5.2c0-.95.86-1.66,1.79-1.49l2.55.46c.52.09.96.45,1.15.95.4,1.05,1.05,3,1.33,5.1.12.9-.6,1.7-1.51,1.7Z"/>
    <line class="cls-2" x1="52.18" y1="20.67" x2="45.88" y2="19.95"/>
    <line class="cls-2" x1="44" y1="22.39" x2="44" y2="23.98"/>
    <line class="cls-2" x1="44" y1="26.81" x2="44" y2="28.4"/>
    <line class="cls-2" x1="44" y1="31.23" x2="44" y2="32.82"/>
  </g>
</svg>