<?xml version="1.0" encoding="UTF-8"?>
<svg id="Capa_1" data-name="Capa 1" xmlns="http://www.w3.org/2000/svg" viewBox="0 0 64 64">
  <defs>
    <style>
      .cls-1 {
        fill: none;
        stroke: #b5d128;
        stroke-miterlimit: 10;
        stroke-width: 3px;
      }
    </style>
  </defs>
  <path class="cls-1" d="M53.5,61.26H10.5c-3.47,0-6.29-2.82-6.29-6.29V15.48c0-3.47,2.82-6.29,6.29-6.29h43.01c3.47,0,6.29,2.82,6.29,6.29v39.49c0,3.47-2.82,6.29-6.29,6.29Z"/>
  <line class="cls-1" x1="58.79" y1="23.36" x2="5.13" y2="23.36"/>
  <line class="cls-1" x1="17.54" y1="2.74" x2="17.54" y2="14.81"/>
  <line class="cls-1" x1="45.37" y1="2.74" x2="45.37" y2="14.81"/>
  <line class="cls-1" x1="15.65" y1="36.28" x2="19.89" y2="36.28"/>
  <line class="cls-1" x1="29.88" y1="36.28" x2="34.12" y2="36.28"/>
  <line class="cls-1" x1="44.11" y1="36.28" x2="48.35" y2="36.28"/>
  <line class="cls-1" x1="15.65" y1="49.19" x2="19.89" y2="49.19"/>
  <line class="cls-1" x1="29.88" y1="49.19" x2="34.12" y2="49.19"/>
  <line class="cls-1" x1="44.11" y1="49.19" x2="48.35" y2="49.19"/>
</svg>