<?xml version="1.0" encoding="UTF-8"?>
<svg id="Capa_1" data-name="Capa 1" xmlns="http://www.w3.org/2000/svg" viewBox="0 0 64 64">
  <defs>
    <style>
      .cls-1 {
        fill: none;
        stroke: #b5d128;
        stroke-linecap: round;
        stroke-linejoin: round;
        stroke-width: 3px;
      }
    </style>
  </defs>
  <path class="cls-1" d="M28.28,3.89l.75.35c1.56.72,3.36.67,4.87-.13l.73-.39c1.44-.76,3.22-.34,4.16,1l.48.68c.99,1.4,2.57,2.26,4.29,2.32l.83.03c1.63.06,2.96,1.32,3.1,2.94l.08.83c.16,1.71,1.1,3.24,2.55,4.15l.7.44c1.38.87,1.9,2.62,1.22,4.1l-.35.75c-.72,1.56-.67,3.36.13,4.87l.39.73c.76,1.44.34,3.22-1,4.16l-.68.48c-1.4.99-2.26,2.57-2.32,4.29l-.03.83c-.06,1.63-1.32,2.96-2.94,3.1l-.83.08c-1.71.16-3.24,1.1-4.15,2.55l-.44.7c-.87,1.38-2.62,1.9-4.1,1.22l-.75-.35c-1.56-.72-3.36-.67-4.87.13l-.73.39c-1.44.76-3.22.34-4.16-1l-.48-.68c-.99-1.4-2.57-2.26-4.29-2.32l-.83-.03c-1.63-.06-2.96-1.32-3.1-2.94l-.08-.83c-.16-1.71-1.1-3.24-2.55-4.15l-.7-.44c-1.38-.87-1.9-2.62-1.22-4.1l.35-.75c.72-1.56.67-3.36-.13-4.87l-.39-.73c-.76-1.44-.34-3.22,1-4.16l.68-.48c1.4-.99,2.26-2.57,2.32-4.29l.03-.83c.06-1.63,1.32-2.96,2.94-3.1l.83-.08c1.71-.16,3.24-1.1,4.15-2.55l.44-.7c.87-1.38,2.62-1.9,4.1-1.22Z"/>
  <circle class="cls-1" cx="32" cy="23.93" r="13.7"/>
  <polyline class="cls-1" points="42.28 41.18 48.46 56.68 42.01 55.03 38.85 60.52 32.49 44.57 26.13 60.52 22.97 55.03 16.52 56.68 22.63 41.35"/>
  <polygon class="cls-1" points="32.35 16.25 34.51 21.39 40.06 21.85 35.84 25.49 37.12 30.92 32.35 28.03 27.58 30.92 28.85 25.49 24.63 21.85 30.19 21.39 32.35 16.25"/>
</svg>