<?xml version="1.0" encoding="UTF-8"?>
<svg id="Capa_1" data-name="Capa 1" xmlns="http://www.w3.org/2000/svg" viewBox="0 0 400 300">
  <defs>
    <style>
      .cls-1 {
        stroke: #ff7249;
      }

      .cls-1, .cls-2 {
        fill: none;
        stroke-miterlimit: 10;
        stroke-width: 7.35px;
      }

      .cls-2 {
        stroke: #b5d128;
      }
    </style>
  </defs>
  <path class="cls-2" d="M276.01,60.32l-96.27,36.03s-4.96.38-12.58,5.53c-7.63,5.15-30.88,23.07-30.88,23.07,0,0-15.44,3.05-19.45,7.24-4,4.19-6.67,11.82-6.67,11.82,0,0-23.45,22.11-31.26,30.12-7.82,8.01-11.44,14.49-14.49,22.3-3.05,7.82-7.24,16.39-8.39,20.59s.38,7.82,4.77,5.15c3.55-2.16,45.04-30.78,60.75-41.63,2.53-1.75,5.98.07,5.98,3.14h0c0,1.58,1.43,2.78,2.98,2.5l33.81-5.96s31.65-14.11,33.55-15.44,6.29-2.48,10.49-.76c4.19,1.72,18.87,6.67,22.5,8.2s11.63,5.15,13.54,8.2,20.59,31.26,22.88,34.31c2.29,3.05,19.45,17.92,24.59,20.4,5.15,2.48,14.3,5.91,20.59,5.53,6.29-.38,8.96-1.53,11.44-4.58,2.48-3.05,9.15-14.49,10.49-17.16s.95-8.2-4.58-11.25c-5.53-3.05-20.4-11.63-23.26-13.34s-5.72-5.53-3.05-11.82,6.1-15.63-6.1-19.64c-12.2-4-38.13-12.01-42.7-14.11s-10.87-6.86-12.2-11.63-.57-16.01,0-17.92,2.48-5.91,7.43-7.43,32.22-8.01,32.22-8.01l24.02-9.72s6.1-6.86,12.2.95c6.1,7.82,12.39,15.44,12.39,15.44,0,0,5.91,2.29,9.34-.95,3.43-3.24,4.96-6.86,4-8.77-.95-1.91-26.88-33.93-29.74-36.03s-5.34-2.86-8.96-1.72c-3.62,1.14-8.2,2.48-10.87,3.43-2.67.95-5.34-.19-7.24-2.67-1.91-2.48-4.48-6.29-11.25-3.43Z"/>
  <line class="cls-1" x1="101.69" y1="187.45" x2="108.15" y2="195.84"/>
</svg>