<?xml version="1.0" encoding="UTF-8"?>
<svg id="Capa_1" data-name="Capa 1" xmlns="http://www.w3.org/2000/svg" viewBox="0 0 400 300">
  <defs>
    <style>
      .cls-1 {
        stroke: #ff7249;
      }

      .cls-1, .cls-2 {
        fill: none;
        stroke-miterlimit: 10;
        stroke-width: 7.35px;
      }

      .cls-2 {
        stroke: #b5d128;
      }
    </style>
  </defs>
  <path class="cls-2" d="M136.82,103.54s14.68.82,14.68,12.07c0,12.72-17.78,19.25-19.58,19.25h-46.66s-6.2-.82-7.34,5.22c-1.14,6.04,2.61,8.65,4.08,9.46s25.89,17.78,32.6,20.06c6.71,2.28,11.61,3.59,16.5,3.59h23.33s7.34-.16,10.28-6.36c-.16-4.4-1.96-10.6,1.79-15.99,3.75-5.38,26.75-36.21,30.34-39.64l3.59-3.43s10.11-2.12,18.11,1.96c7.99,4.08,102.28,56.44,102.28,56.44,0,0,9.3.33,9.14-7.67-.16-7.99-5.22-18.92-12.56-21.53-7.34-2.61-12.72-4.4-15.17-5.71s-6.2-7.18-4.24-12.56c1.96-5.38,7.99-11.75,14.03-9.95,6.04,1.79,31.16,9.79,34.75,10.77,3.59.98,4.73,3.26,4.24,6.85-.49,3.59-2.61,24.63-2.61,24.63l11.42,2.28v19.9s-2.12,18.11-21.04,18.11H92.57s-11.09,1.47-11.26-8.48c-.16-9.95,2.77-15.33-11.58-20.55-14.36-5.22-18.43-7.01-18.43-7.01,0,0-11.75-6.04-11.09-21.53s17.29-30.18,39.64-30.18h56.97Z"/>
  <line class="cls-1" x1="306.62" y1="186.3" x2="306.62" y2="196.46"/>
</svg>