<?xml version="1.0" encoding="UTF-8"?>
<svg id="Capa_1" data-name="Capa 1" xmlns="http://www.w3.org/2000/svg" viewBox="0 0 400 300">
  <defs>
    <style>
      .cls-1 {
        stroke: #ff7249;
      }

      .cls-1, .cls-2 {
        fill: none;
        stroke-miterlimit: 10;
        stroke-width: 7.35px;
      }

      .cls-2 {
        stroke: #b5d128;
      }
    </style>
  </defs>
  <path class="cls-2" d="M57.95,77.29l29.85-6.03,28.27,40.32,68.87,64.86s2.58,2.87,6.46,1.15,12.63-1.72,17.51,4.88c2.01,3.16,6.03,2.44,6.03,2.44l127.7.07s13.06-.5,13.06,9.26-3.73,12.2-5.88,14.35-15.21,9.33-22.67,10.9c-7.46,1.58-50.36,3.3-74.76,3.3h-87.96c-1.03,0-1.87-.84-1.87-1.87v-1.89c0-1.02-1.03-1.73-1.98-1.36l-15.52,5.98s-17.07,2.87-26.26,1.58c-18.65-2.73-37.16-17.65-40.75-35.01-3.14-15.18-8.5-48.38-9.8-56.49-.18-1.12-.95-2.05-2.02-2.44l-2.98-1.08c-1.03-.37-1.85-1.16-2.27-2.16l-16.51-39.41s-2.58-11.48,13.49-11.34Z"/>
  <line class="cls-1" x1="242.53" y1="216.22" x2="242.53" y2="228.73"/>
</svg>