<?xml version="1.0" encoding="UTF-8"?>
<svg id="Capa_1" data-name="Capa 1" xmlns="http://www.w3.org/2000/svg" viewBox="0 0 400 300">
  <defs>
    <style>
      .cls-1 {
        stroke: #ff7249;
      }

      .cls-1, .cls-2 {
        fill: none;
        stroke-miterlimit: 10;
        stroke-width: 7.35px;
      }

      .cls-2 {
        stroke: #b5d128;
      }
    </style>
  </defs>
  <path class="cls-2" d="M213.48,97.06s-19.07-9.37-29.73-7.11c-10.66,2.26-7.27,11.15-4.69,12.12,2.59.97,11.15,3.55,11.15,7.76s-26.82,41.85-26.82,41.85l-26.66,26.5s-5.98,7.27-1.45,13.57c4.52,6.3,12.44,17.13,12.44,17.13,0,0,3.88,10.02-5.98,10.18-9.86.16-39.55,4.45-48.44,8.49-8.89,4.04-27.56,9.94-36.28,16.89-8.72,6.95-17.23,5.64-18.85-.66-1.62-6.3-.81-9.69,10.83-13.41,11.63-3.72,45.4-15.51,45.4-15.51,0,0,6.46-2.75,8.08-8.08,1.62-5.33,4.36-16.48,4.36-16.48,0,0,1.45-4.2,6.46-9.37,5.01-5.17,49.76-51.54,49.76-51.54,0,0,5.17-4.36-.65-11.15-5.82-6.79-17.29-20.68-17.29-20.68,0,0-6.14-8.08,3.72-13.25,9.86-5.17,64.14-32.31,64.14-32.31,0,0,6.14-2.42,16.64,0,9.08,2.1,60.66,13.14,74.47,16.09,1.9.41,3.78-.76,4.26-2.64l.58-2.27c.49-1.92,2.22-3.26,4.2-3.26h10.53l33.28,8.08s5.33,2.26,5.49,8.08c.16,5.82-1.29,8.24-8.72,10.99-7.43,2.75-129.58,44.76-129.58,44.76l-22.94,3.88s-4.36.32-6.3-1.29c0,0-2.1-4.04,12.12-15.03l8.89-5.33s3.27-5.95,2.26-10.99c-.65-3.23-4.69-5.98-4.69-5.98Z"/>
  <line class="cls-1" x1="316.8" y1="94.04" x2="320.04" y2="104.07"/>
</svg>